<?xml version="1.0" encoding="UTF-8"?>
<!DOCTYPE svg PUBLIC "-//W3C//DTD SVG 1.1//EN" "http://www.w3.org/Graphics/SVG/1.1/DTD/svg11.dtd">
<!-- Creator: CorelDRAW X7 -->
<svg xmlns="http://www.w3.org/2000/svg" xml:space="preserve" width="2.07333in" height="1.65666in" version="1.1" style="shape-rendering:geometricPrecision; text-rendering:geometricPrecision; image-rendering:optimizeQuality; fill-rule:evenodd; clip-rule:evenodd"
viewBox="0 0 2073 1657"
 xmlns:xlink="http://www.w3.org/1999/xlink">
 <defs>
  <style type="text/css">
   <![CDATA[
    .fil0 {fill:#FEFEFE}
    .fil10 {fill:#010101}
    .fil5 {fill:#012D72}
    .fil3 {fill:#018131}
    .fil8 {fill:#0C3215}
    .fil9 {fill:#115229}
    .fil6 {fill:#4E4A2F}
    .fil11 {fill:#4F0C0F}
    .fil15 {fill:#504B0E}
    .fil12 {fill:#6E0B11}
    .fil16 {fill:#6F6E6C}
    .fil22 {fill:#AFB0B0}
    .fil21 {fill:#D8D8D8}
    .fil1 {fill:#E10916}
    .fil19 {fill:#E98F4F}
    .fil17 {fill:#E9F9EA}
    .fil14 {fill:#EDAC72}
    .fil20 {fill:#F4C696}
    .fil18 {fill:#F5EACF}
    .fil13 {fill:#F6D0B0}
    .fil7 {fill:#F77217}
    .fil2 {fill:#FAED03}
    .fil4 {fill:#FDFDFD}
   ]]>
  </style>
 </defs>
 <g id="Layer_x0020_1">
  <metadata id="CorelCorpID_0Corel-Layer"/>
  <path class="fil0" d="M389 333l754 -168 613 272 308 703 -14 79c-722,399 -1393,339 -2033,0l-8 -80 380 -806z"/>
  <g id="_1742645411824">
   <path class="fil1" d="M147 1139c3,-173 13,-264 66,-411 116,-320 426,-608 825,-606 401,2 703,285 822,609 21,58 40,124 51,187 14,81 9,142 16,222l137 0c13,-148 -32,-344 -78,-462 -51,-131 -128,-251 -206,-336 -156,-172 -398,-341 -742,-343 -336,-1 -591,167 -745,341 -72,82 -163,212 -205,336 -45,131 -95,301 -79,463l138 0z"/>
   <path class="fil2" d="M147 1139l149 1c-25,-453 300,-892 739,-892 438,-1 765,430 741,891l151 1c-7,-80 -2,-141 -16,-222 -11,-63 -30,-129 -51,-187 -119,-324 -421,-607 -822,-609 -399,-2 -709,286 -825,606 -53,147 -63,238 -66,411z"/>
   <path class="fil3" d="M296 1140l145 0c10,-126 0,-175 40,-290 29,-85 70,-160 117,-217 91,-111 228,-225 440,-225 321,0 540,284 585,574 9,56 5,102 10,158l143 -1c24,-461 -303,-892 -741,-891 -439,0 -764,439 -739,892z"/>
   <path class="fil4" d="M631 1545c37,2 -1,44 -4,45 -26,9 -14,-32 4,-45zm743 -53c-8,19 -4,9 3,28 7,-11 -1,-14 12,-18 13,11 6,21 7,38 1,18 13,17 7,36 -13,1 -11,-4 -17,-13 -19,15 -44,27 -59,-3 -17,-35 19,-49 17,-66 -2,-15 -10,-22 0,-38 14,-25 47,-2 30,36zm-572 40c1,-24 25,-44 54,-34 26,9 7,39 11,70 9,-22 -3,-45 12,-67 20,-4 11,4 23,3 8,-1 9,-6 24,-2 13,9 6,11 13,23 8,-16 36,-33 56,-13 11,11 5,20 4,35 -1,13 3,30 3,34 4,-23 2,-47 3,-71 1,-22 -8,-59 23,-48 10,15 4,42 6,61 33,-45 20,-17 49,-22l4 -9c8,-30 24,-21 28,8 16,1 20,4 22,21 19,-34 54,-20 61,-6 13,32 -27,44 -35,53 17,4 35,-18 41,-1 2,-19 -9,-48 2,-62 10,-12 8,-1 28,-7 44,-13 35,38 27,43 -14,10 -17,-5 -24,-11 -16,17 2,39 -7,62 -12,12 -20,5 -23,-10 -10,8 -14,13 -27,16 -12,3 -23,1 -33,-5 -19,-12 -18,-36 -15,-62l-17 1c0,22 9,58 -7,71 -25,8 -17,-43 -20,-69l-19 -7c-5,5 -9,9 -13,16 7,20 24,33 17,58l-18 1c-6,-7 -16,-32 -22,-35 -3,18 1,21 -9,33 -16,4 -10,0 -16,-1 -13,-2 1,1 -13,3 -11,2 -2,0 -11,-1 -19,-1 -55,16 -55,-48 -9,-6 -7,3 -19,-13l-4 -5c-17,23 -4,38 -14,61 -8,7 -19,-1 -26,-2 -23,-2 -60,6 -64,-20 -15,23 -24,27 -53,-18 -2,12 -5,48 -25,29 -11,-11 5,-86 8,-106 3,-21 2,-37 26,-31 5,14 1,20 2,36 8,-9 25,-29 39,-31 4,3 5,0 8,10 3,10 -7,23 -13,29 -9,11 -19,20 -28,30 2,8 18,35 31,40 0,-6 0,-12 1,-17l4 -13zm661 28c-5,-14 -2,-10 0,-23l16 -4 -11 -69c-33,-1 -33,-27 -10,-32 16,-4 47,-9 57,0 1,-11 -2,-16 8,-21 8,-4 14,1 17,6 0,1 31,117 21,130 -22,21 -26,-20 -29,-36 -5,-21 -9,-43 -13,-65 -6,17 -7,10 -24,15l11 63c13,0 25,-4 28,11 6,27 -59,32 -71,25zm189 -29l-2 -3c-17,-15 -11,-47 -26,-58 -13,20 25,51 6,70 -21,18 -30,-41 -37,-57 -8,14 0,24 2,40 4,22 -13,32 -23,12 -8,-15 -21,-72 -14,-88 17,-4 12,1 18,1 7,0 3,-3 15,-5 16,-2 4,3 21,-3 12,-5 6,-6 22,-4 7,5 15,12 16,24l1 -31c22,-6 24,4 27,24 8,36 10,35 20,34 5,-10 -4,-19 -3,-35l-4 -11c-2,-13 -2,-17 4,-25 23,0 21,19 26,40 4,17 17,40 8,55 0,0 -34,17 -56,2 0,1 0,2 0,2l-6 13c-6,6 -6,4 -15,3zm-1278 -49c12,-16 10,-35 16,-52 12,-33 25,-11 30,-5 20,-3 13,-1 25,5 29,14 37,-14 34,46 37,-54 93,-18 66,9l1 4 -5 35 9 -31c5,-36 10,-51 32,-31 30,-10 38,11 33,38 -2,17 -6,50 -12,61 -40,6 -16,-33 -16,-58 0,-9 1,-4 -3,-9 -6,8 -11,27 -18,37l1 2 -5 20c-15,4 -16,3 -23,-9 -15,9 -8,2 -30,-1 -9,-1 -16,1 -27,-9l-10 -6c-45,29 -21,-38 -20,-64 -19,8 -13,90 -41,61 -9,-10 3,-36 6,-63 -14,8 -7,8 -15,25 -2,8 -2,18 -9,23 -4,2 -6,4 -11,2 -10,-4 -6,-1 -6,-10 -10,-6 -2,-2 -12,-2 -13,1 -31,-3 -46,-7 -21,-4 -30,-30 9,-31l21 -65c-5,-3 -12,-6 -16,-10l0 -15c16,-14 17,-9 37,-3 16,4 22,7 33,15 4,29 -7,24 -28,22l-18 61c14,8 12,1 18,15zm-96 33c92,38 246,63 351,83 372,70 817,42 1162,-74l1 -190c-18,3 -58,19 -79,26 -28,10 -57,16 -87,24 -283,71 -709,69 -994,21 -64,-10 -123,-23 -183,-34 -54,-10 -127,-41 -171,-47l0 191z"/>
   <path class="fil5" d="M278 1324c44,6 117,37 171,47 60,11 119,24 183,34 285,48 711,50 994,-21 30,-8 59,-14 87,-24 21,-7 61,-23 79,-26l-1 190c-345,116 -790,144 -1162,74 -105,-20 -259,-45 -351,-83l0 -191zm-94 57l-92 -104 164 68 3 -2 0 186 22 7 -1 32 -236 -139 140 -48zm1793 -103l-90 104 136 49 -235 136c-3,-36 3,-16 24,-33l1 -189 164 -67zm-1722 43c-59,-15 -134,-52 -187,-83 -25,-14 -32,-35 -54,-16l133 151 -148 54 301 173 1 -55c24,1 136,35 170,42 392,90 741,90 1132,9 31,-7 150,-42 164,-42l2 48 301 -177 -148 -53c10,-31 132,-135 128,-153 -13,-16 -25,3 -40,13 -35,24 -96,50 -134,67 -117,52 -25,-17 -91,14 -31,14 -65,25 -99,35 -361,109 -954,89 -1326,-20 -26,-7 -82,-29 -101,-31l-4 24z"/>
   <path class="fil1" d="M1021 778l3 -194c-11,-22 -38,23 -44,31 -36,46 -88,101 -120,145l-251 3 27 54 154 -1c3,41 -107,170 -112,194 -3,14 28,58 39,63l109 -120c4,45 -7,98 17,122 16,14 54,61 73,63 16,-51 -4,-279 1,-334 2,-18 40,-60 54,-66l0 38 50 2z"/>
   <path class="fil5" d="M1021 778l37 -1 2 -42c8,3 52,55 53,61 7,21 -15,310 4,341 12,-2 60,-52 72,-63 18,-18 13,-20 13,-53 0,-23 0,-46 0,-68l116 121 38 -59c-19,-48 -117,-154 -115,-198l151 0 30 -54c-6,-5 -226,-2 -253,-2l-145 -177 -3 194z"/>
   <polygon class="fil4" points="184,1381 44,1429 280,1568 281,1536 259,1529 259,1343 256,1345 92,1277 "/>
   <path class="fil4" d="M1813 1345l-1 189c-21,17 -27,-3 -24,33l235 -136 -136 -49 90 -104 -164 67z"/>
   <path class="fil1" d="M813 618c-90,28 -49,150 36,126 85,-23 45,-152 -36,-126z"/>
   <path class="fil5" d="M1194 620c-83,31 -38,152 44,122 82,-29 39,-153 -44,-122z"/>
   <path class="fil6" d="M994 1519c2,13 -1,25 -1,40 0,10 6,29 3,35 -4,7 -9,-2 -25,1 -10,2 -20,1 -26,-5 -23,-19 -4,-107 49,-71zm203 49c13,26 -36,31 -50,19 -13,-13 -15,-45 -4,-64 15,-24 48,-21 50,2 3,30 -32,23 -37,47 29,11 28,-8 41,-4zm-318 25c-5,-6 -6,-5 -5,-22 1,-8 2,-17 2,-25 1,-13 2,-28 5,-39 24,1 1,9 22,4 11,-3 9,-8 22,-2 8,9 10,28 -4,35 0,0 -1,-1 -1,-1l-8 -17c-42,15 -4,60 -33,67zm220 -112c7,4 4,-3 8,11 1,3 2,10 2,14l20 3c1,12 4,11 -5,17l-15 5c0,17 11,61 -7,66 -12,-9 -7,-48 -8,-65 -12,-8 -23,0 -19,-22l18 -3c1,-20 -2,-18 6,-26zm125 111c-16,-2 -12,-12 -13,-30 -1,-10 -7,-49 0,-55 7,-5 7,0 7,0 24,4 9,-10 37,-5 6,10 8,23 3,35 -16,-1 -7,-2 -16,-15 -34,14 -8,39 -18,70zm-212 4c-6,-16 -1,-86 -1,-111 0,-26 14,-27 16,-6 2,19 -2,37 1,55 24,-8 11,-28 34,-30 13,15 -5,25 -14,39 6,19 32,39 16,53 -9,-2 -10,-7 -16,-17 -1,-3 -5,-10 -6,-12 -7,-10 0,-5 -10,-8 -17,18 7,34 -20,37zm-210 -64l13 -16c20,-26 43,-12 48,-6 0,0 0,75 -3,81 -14,-4 -2,-4 -15,-5 -9,0 -18,8 -33,-4 -1,-1 -3,-3 -4,-4 -5,-4 -1,-2 -6,-4 4,26 41,18 64,20 7,1 18,9 26,2 10,-23 -3,-38 14,-61l4 5c12,16 10,7 19,13 0,64 36,47 55,48 9,1 0,3 11,1 14,-2 0,-5 13,-3 6,1 0,5 16,1 10,-12 6,-15 9,-33 6,3 16,28 22,35l18 -1c7,-25 -10,-38 -17,-58 4,-7 8,-11 13,-16l19 7c3,26 -5,77 20,69 16,-13 7,-49 7,-71l17 -1c-3,26 -4,50 15,62 10,6 21,8 33,5 13,-3 17,-8 27,-16 3,15 11,22 23,10 9,-23 -9,-45 7,-62 7,6 10,21 24,11 8,-5 17,-56 -27,-43 -20,6 -18,-5 -28,7 -11,14 0,43 -2,62 -6,-17 -24,5 -41,1 8,-9 48,-21 35,-53 -7,-14 -42,-28 -61,6 -2,-17 -6,-20 -22,-21 -4,-29 -20,-38 -28,-8l-4 9c-29,5 -16,-23 -49,22 -2,-19 4,-46 -6,-61 -31,-11 -22,26 -23,48 -1,24 1,48 -3,71 0,-4 -4,-21 -3,-34 1,-15 7,-24 -4,-35 -20,-20 -48,-3 -56,13 -7,-12 0,-14 -13,-23 -15,-4 -16,1 -24,2 -12,1 -3,-7 -23,-3 -15,22 -3,45 -12,67 -4,-31 15,-61 -11,-70 -29,-10 -53,10 -54,34z"/>
   <path class="fil7" d="M1151 1342c5,8 3,3 2,14l-16 5c-4,-13 -4,-13 0,-24 13,-2 9,-3 14,5zm-15 -39c23,-2 19,18 0,16l0 -16zm34 75c11,0 16,-6 22,-12 5,-22 -1,-23 -9,-36 6,-12 16,-35 -2,-40 -27,-11 -54,-8 -84,-6l2 93 71 1z"/>
   <path class="fil7" d="M1441 1302c2,2 4,-4 3,9 0,7 0,3 -3,7 -16,-4 -13,-13 0,-16zm37 -27c-92,-7 -90,42 -71,58 12,11 28,1 39,10 -18,7 -24,3 -44,-1l4 31c23,7 68,10 79,-12 6,-13 -2,-75 -7,-86z"/>
   <path class="fil7" d="M941 1332c-1,12 -1,3 -4,7 -15,-3 -14,-12 0,-17 3,6 4,-7 4,10zm39 -30c-26,-1 -71,-9 -81,11 -7,14 -4,30 5,37 11,10 25,5 35,10 -14,17 -30,-1 -46,-4 0,25 -6,34 19,41 72,19 74,-30 68,-95z"/>
   <path class="fil7" d="M505 1247c1,-5 2,-5 4,-8 17,2 16,17 0,21 -2,-3 -5,4 -4,-13zm-6 30c14,5 25,21 48,5 34,-25 5,-74 -74,-74l-24 97 41 6 9 -34z"/>
   <path class="fil7" d="M1338 1370c2,-29 -6,-44 2,-57 14,5 11,24 13,54l37 -3c0,-25 2,-66 -19,-74 -17,-7 -22,2 -34,4 -4,0 -30,-1 -42,0 -3,17 4,62 7,77l36 -1z"/>
   <path class="fil8" d="M1691 1441l4 -10c1,-1 2,-7 2,-9 12,2 10,2 14,16l13 49c7,22 1,19 -8,21 -21,4 -33,15 -46,-13 -6,-13 -20,-49 -13,-60 13,-21 14,42 32,60 33,-3 10,-24 8,-50l-2 7c-1,16 8,25 3,35 -10,1 -12,2 -20,-34 -3,-20 -5,-30 -27,-24l-1 31c-1,-12 -9,-19 -16,-24 -16,-2 -10,-1 -22,4 -17,6 -5,1 -21,3 -12,2 -8,5 -15,5 -6,0 -1,-5 -18,-1 -7,16 6,73 14,88 10,20 27,10 23,-12 -2,-16 -10,-26 -2,-40 7,16 16,75 37,57 19,-19 -19,-50 -6,-70 15,11 9,43 26,58 0,-17 -15,-59 -22,-66 -32,11 7,44 -1,75 -24,0 -18,-51 -33,-67 -28,24 12,60 -12,70 -10,-10 -23,-67 -21,-87 14,-2 6,1 19,9 6,-18 8,-12 24,-12 18,0 4,-10 31,-8 10,15 12,28 19,47 17,42 10,31 -2,42 9,1 9,3 15,-3l6 -13c0,0 0,-1 0,-2 22,15 56,-2 56,-2 9,-15 -4,-38 -8,-55 -5,-21 -3,-40 -26,-40 -6,8 -6,12 -4,25z"/>
   <path class="fil9" d="M1527 1418c12,3 15,46 17,57 4,15 16,57 10,68 -15,-3 -12,-27 -20,-61 -3,-14 -16,-55 -7,-64zm-64 119c-1,18 -2,3 9,10 4,-9 2,-6 14,-7 2,-23 -8,-58 -12,-82 -9,-3 -18,-1 -22,-8 -3,-9 6,-11 13,-12 18,-3 46,-10 44,11 -12,5 -11,-2 -22,9 1,15 6,32 8,49 3,20 -1,33 25,23 8,6 2,-2 7,7 -5,12 -14,10 -29,14l-35 9c12,7 77,2 71,-25 -3,-15 -15,-11 -28,-11l-11 -63c17,-5 18,2 24,-15 4,22 8,44 13,65 3,16 7,57 29,36 10,-13 -21,-129 -21,-130 -3,-5 -9,-10 -17,-6 -10,5 -7,10 -8,21 -10,-9 -41,-4 -57,0 -23,5 -23,31 10,32l11 69 -16 4z"/>
   <path class="fil7" d="M829 1337c0,-14 -3,-16 7,-25 7,1 10,-2 12,9 3,11 -4,18 -4,18l2 6 0 22 30 4 2 -17c2,-8 2,-6 4,-8 -1,-23 6,-48 -19,-52 -19,-3 -13,4 -30,-1 -14,-3 -18,-4 -34,-4 -10,16 -9,55 -9,78l38 1 1 -31z"/>
   <path class="fil10" d="M1355 1518c7,8 14,17 17,29 -10,15 -18,14 -31,5 -4,-20 3,-27 14,-34zm7 -52c4,7 3,8 0,16 -1,0 -6,4 -7,-9 0,-10 3,-6 7,-7zm24 97c6,9 4,14 17,13 6,-19 -6,-18 -7,-36 -1,-17 6,-27 -7,-38 -13,4 -5,7 -12,18 -7,-19 -11,-9 -3,-28 17,-38 -16,-61 -30,-36 -10,16 -2,23 0,38 2,17 -34,31 -17,66 15,30 40,18 59,3z"/>
   <path class="fil10" d="M943 1218c12,8 8,11 13,25l34 0c0,-20 -8,-26 -14,-39 7,-10 12,-19 12,-36l-33 -1c-6,18 -1,17 -15,24 -5,-4 -4,-17 -6,-23l-28 0 -2 72 29 1 1 -26c15,-2 5,-1 9,3z"/>
   <path class="fil7" d="M1606 1299c5,-7 -7,-6 9,-6 13,16 1,15 0,16 -16,-1 -4,0 -9,-6l0 -4zm-31 -17c17,-4 16,-12 35,-6l-4 4c-9,6 -18,6 -23,15 -6,12 -1,27 9,31 6,2 60,-11 68,-15 0,-15 -12,-57 -23,-64 -23,-14 -53,5 -66,14l4 21z"/>
   <path class="fil10" d="M1201 1197c4,3 4,0 6,6 3,6 1,4 1,9l-10 0 3 -15zm-48 45c63,1 16,-11 50,-12 38,-1 -18,14 50,13l-25 -75 -50 -1 -25 75z"/>
   <path class="fil7" d="M737 1343l-5 3c-7,-1 -1,1 -9,-3l-2 -15c15,-2 10,-4 20,5 0,24 1,4 -4,10zm1 -32c-1,1 -2,1 -2,1l-16 4c-31,3 -23,31 -17,36 5,5 60,12 71,10 2,-32 24,-88 -48,-82 -22,2 -21,5 -23,26 17,1 23,-3 35,5z"/>
   <path class="fil7" d="M1233 1360c-7,-6 -1,-11 -1,-12l13 1 -2 12c-6,1 -5,4 -10,-1zm-27 -30c15,-2 26,-11 36,3 -9,5 -22,-1 -32,10 -7,9 -6,22 2,29 7,7 57,4 71,2 3,-19 1,-58 -10,-68 -18,-15 -50,-7 -67,2l0 22z"/>
   <path class="fil10" d="M1314 1216l0 27 31 0 2 -76 -33 0 -1 28c-23,0 -17,-1 -18,-27l-30 -1 -1 74 28 0c1,-15 -2,-18 5,-29 10,-1 9,-3 17,4z"/>
   <path class="fil7" d="M607 1278c7,1 6,5 8,14l-17 -2c0,-7 1,-13 9,-12zm-9 30c8,-5 20,1 36,1 9,-62 -61,-67 -75,-27 -20,59 67,75 72,38 -14,-6 -22,4 -33,-12z"/>
   <path class="fil10" d="M1030 1211c-6,-15 0,-12 0,-14 4,-1 10,-5 11,4 2,12 -4,9 -11,10zm-12 -40c-50,26 -13,91 35,70 42,-19 14,-96 -35,-70z"/>
   <path class="fil3" d="M1650 1528l2 3c12,-11 19,0 2,-42 -7,-19 -9,-32 -19,-47 -27,-2 -13,8 -31,8 -16,0 -18,-6 -24,12 -13,-8 -5,-11 -19,-9 -2,20 11,77 21,87 24,-10 -16,-46 12,-70 15,16 9,67 33,67 8,-31 -31,-64 1,-75 7,7 22,49 22,66z"/>
   <path class="fil2" d="M758 1522c14,-27 53,-39 41,-63 -10,1 -8,0 -26,19 -9,10 -9,16 -22,22 -1,-18 10,-35 -1,-48 -7,2 -7,-1 -10,11 -1,4 -1,12 -2,16 -4,31 -17,86 -9,104 19,-2 11,-15 15,-41 13,7 22,31 31,38 3,2 4,3 9,3 7,0 3,-1 6,-3 13,-14 -19,-22 -32,-58z"/>
   <path class="fil1" d="M396 1492c4,-28 6,-37 30,-42 0,20 -17,59 -9,72 14,1 13,-19 16,-33 4,-25 2,-31 26,-33 1,19 -14,60 -5,72 11,-2 5,6 9,-9 3,-9 -1,-3 4,-12 2,-30 12,-41 3,-68 -12,-2 -20,1 -28,-3 -15,-8 -14,-5 -29,-3 -1,-9 -1,-8 -4,-14 -16,5 -17,23 -20,41 -3,16 -14,37 -5,46 12,-3 6,-5 12,-14z"/>
   <path class="fil10" d="M777 1223c-11,5 -12,-1 -25,-8l-6 25c79,18 78,-23 63,-37 -11,-9 -20,-4 -25,-17 13,-7 13,1 25,6l6 -22c-83,-16 -69,28 -60,36 11,11 18,2 22,17z"/>
   <path class="fil10" d="M827 1242l63 1 1 -19c-13,0 -22,2 -29,-4 5,-13 26,3 20,-19 -3,-10 -2,-1 -12,-6 -1,-1 -2,-1 -2,-1 -10,-6 -1,5 -6,-5l14 -4c3,0 10,0 14,0l1 -17 -64 -1 0 75z"/>
   <path class="fil7" d="M1518 1310c14,0 14,0 15,14 -4,1 -9,3 -15,3 -6,0 -7,-3 -14,-1 0,1 0,6 0,7 0,6 0,3 1,7l46 -3c16,-3 25,-19 16,-36 -7,-14 -24,-9 -32,-13 -8,-4 -3,1 -6,-7 11,-7 11,-2 24,-1l3 -19c-31,-6 -44,3 -63,16 -3,23 1,35 25,33z"/>
   <path class="fil11" d="M374 1482c-3,2 -5,3 -4,10 2,13 -1,-1 6,10 0,9 -4,6 6,10 5,2 7,0 11,-2 7,-5 7,-15 9,-23l-6 5c-6,9 0,11 -12,14 -9,-9 2,-30 5,-46 3,-18 4,-36 20,-41 3,6 3,5 4,14 15,-2 14,-5 29,3 8,4 16,1 28,3 9,27 -1,38 -3,68l5 21 10 6c11,10 18,8 27,9 22,3 15,10 30,1 7,12 8,13 23,9l5 -20c-11,8 -1,3 -9,11 -5,5 1,5 -10,3 -4,-20 5,-30 4,-48l-2 -6 -9 31 5 -35c-4,2 -10,-3 -11,24 -1,10 0,21 -3,29 -13,0 -1,-4 -20,-6 -12,0 -14,2 -23,-4 -20,-14 -10,-60 16,-75 18,-10 28,-1 40,8l0 20c27,-27 -29,-63 -66,-9 3,-60 -5,-32 -34,-46 -12,-6 -5,-8 -25,-5 -5,-6 -18,-28 -30,5 -6,17 -4,36 -16,52z"/>
   <path class="fil2" d="M1012 1596c27,-3 3,-19 20,-37 10,3 3,-2 10,8 1,2 5,9 6,12 6,10 7,15 16,17 16,-14 -10,-34 -16,-53 9,-14 27,-24 14,-39 -23,2 -10,22 -34,30 -3,-18 1,-36 -1,-55 -2,-21 -16,-20 -16,6 0,25 -5,95 1,111z"/>
   <path class="fil7" d="M695 1253l-37 -4 -15 96c12,3 25,7 38,4l14 -96z"/>
   <path class="fil6" d="M758 1522c13,36 45,44 32,58 -3,2 1,3 -6,3 -5,0 -6,-1 -9,-3 -9,-7 -18,-31 -31,-38 -4,26 4,39 -15,41 -8,-18 5,-73 9,-104 1,-4 1,-12 2,-16 3,-12 3,-9 10,-11 11,13 0,30 1,48 13,-6 13,-12 22,-22 18,-19 16,-18 26,-19 12,24 -27,36 -41,63zm44 52l0 -42 -4 13c-1,5 -1,11 -1,17 -13,-5 -29,-32 -31,-40 9,-10 19,-19 28,-30 6,-6 16,-19 13,-29 -3,-10 -4,-7 -8,-10 -14,2 -31,22 -39,31 -1,-16 3,-22 -2,-36 -24,-6 -23,10 -26,31 -3,20 -19,95 -8,106 20,19 23,-17 25,-29 29,45 38,41 53,18z"/>
   <path class="fil2" d="M846 1521c2,9 1,25 0,35 -2,23 -22,13 -22,12 -12,-9 -7,-50 22,-47zm-44 11l0 42c5,2 1,0 6,4 1,1 3,3 4,4 15,12 24,4 33,4 13,1 1,1 15,5 3,-6 3,-81 3,-81 -5,-6 -28,-20 -48,6l-13 16z"/>
   <path class="fil2" d="M1152 1545c3,-15 8,-25 24,-17 -6,9 -13,13 -24,17zm45 23c-13,-4 -12,15 -41,4 5,-24 40,-17 37,-47 -2,-23 -35,-26 -50,-2 -11,19 -9,51 4,64 14,12 63,7 50,-19z"/>
   <path class="fil2" d="M979 1529l0 45c-6,3 -9,5 -18,5 -18,-16 -11,-53 18,-50zm15 -10c-53,-36 -72,52 -49,71 6,6 16,7 26,5 16,-3 21,6 25,-1 3,-6 -3,-25 -3,-35 0,-15 3,-27 1,-40z"/>
   <path class="fil1" d="M357 1394l-25 73 -20 2 -3 13c10,7 15,4 27,7 6,2 24,11 30,3 10,-12 -9,-16 -16,-20 -1,-1 -2,-1 -2,-2 1,-14 17,-59 22,-71l23 2c11,-25 -54,-40 -54,-23 0,9 9,9 18,16z"/>
   <polygon class="fil10" points="1087,1242 1151,1243 1151,1224 1122,1224 1120,1168 1087,1167 "/>
   <path class="fil1" d="M512 1521c-23,-1 -21,-15 -15,-32 5,-14 13,-22 30,-19 1,16 -2,42 -15,51zm34 -32l-1 -4 0 -20c-12,-9 -22,-18 -40,-8 -26,15 -36,61 -16,75 9,6 11,4 23,4 19,2 7,6 20,6 3,-8 2,-19 3,-29 1,-27 7,-22 11,-24z"/>
   <path class="fil1" d="M552 1499c1,18 -8,28 -4,48 11,2 5,2 10,-3 8,-8 -2,-3 9,-11l-1 -2c-5,-20 8,-44 30,-46 0,19 -15,56 -5,71 13,2 12,-26 14,-41 4,-22 10,-33 -5,-50l-21 5 -11 -10c-15,14 -3,23 -16,39z"/>
   <path class="fil3" d="M1691 1441l4 11 2 -7c2,26 25,47 -8,50 -18,-18 -19,-81 -32,-60 -7,11 7,47 13,60 13,28 25,17 46,13 9,-2 15,1 8,-21l-13 -49c-4,-14 -2,-14 -14,-16 0,2 -1,8 -2,9l-4 10z"/>
   <path class="fil12" d="M336 1489c-12,-3 -17,0 -27,-7l3 -13 20 -2 25 -73c-9,-7 -18,-7 -18,-16 0,-17 65,-2 54,23l-23 -2c-5,12 -21,57 -22,71 0,1 1,1 2,2 7,4 26,8 16,20 -6,8 -24,-1 -30,-3zm40 13c-7,-11 -4,3 -6,-10 -1,-7 1,-8 4,-10 -6,-14 -4,-7 -18,-15l18 -61c21,2 32,7 28,-22 -11,-8 -17,-11 -33,-15 -20,-6 -21,-11 -37,3l0 15c4,4 11,7 16,10l-21 65c-39,1 -30,27 -9,31 15,4 33,8 46,7 10,0 2,-4 12,2z"/>
   <path class="fil3" d="M1463 1537c-2,13 -5,9 0,23l35 -9c15,-4 24,-2 29,-14 -5,-9 1,-1 -7,-7 -26,10 -22,-3 -25,-23 -2,-17 -7,-34 -8,-49 11,-11 10,-4 22,-9 2,-21 -26,-14 -44,-11 -7,1 -16,3 -13,12 4,7 13,5 22,8 4,24 14,59 12,82 -12,1 -10,-2 -14,7 -11,-7 -10,8 -9,-10z"/>
   <path class="fil7" d="M1012 1307l-15 -2 -2 73c12,1 27,2 37,-2l1 -70 -21 1z"/>
   <path class="fil2" d="M1093 1507l-18 3c-4,22 7,14 19,22 1,17 -4,56 8,65 18,-5 7,-49 7,-66l15 -5c9,-6 6,-5 5,-17l-20 -3c0,-4 -1,-11 -2,-14 -4,-14 -1,-7 -8,-11 -8,8 -5,6 -6,26z"/>
   <path class="fil2" d="M879 1593c29,-7 -9,-52 33,-67l8 17c0,0 1,1 1,1 14,-7 12,-26 4,-35 -13,-6 -11,-1 -22,2 -21,5 2,-3 -22,-4 -3,11 -4,26 -5,39 0,8 -1,17 -2,25 -1,17 0,16 5,22z"/>
   <path class="fil2" d="M1224 1592c10,-31 -16,-56 18,-70 9,13 0,14 16,15 5,-12 3,-25 -3,-35 -28,-5 -13,9 -37,5 0,0 0,-5 -7,0 -7,6 -1,45 0,55 1,18 -3,28 13,30z"/>
   <path class="fil12" d="M550 1493l2 6c13,-16 1,-25 16,-39l11 10 21 -5c15,17 9,28 5,50 -2,15 -1,43 -14,41 -10,-15 5,-52 5,-71 -22,2 -35,26 -30,46 7,-10 12,-29 18,-37 4,5 3,0 3,9 0,25 -24,64 16,58 6,-11 10,-44 12,-61 5,-27 -3,-48 -33,-38 -22,-20 -27,-5 -32,31z"/>
   <path class="fil12" d="M396 1492l6 -5c8,-17 1,-17 15,-25 -3,27 -15,53 -6,63 28,29 22,-53 41,-61 -1,26 -25,93 20,64l-5 -21c-5,9 -1,3 -4,12 -4,15 2,7 -9,9 -9,-12 6,-53 5,-72 -24,2 -22,8 -26,33 -3,14 -2,34 -16,33 -8,-13 9,-52 9,-72 -24,5 -26,14 -30,42z"/>
   <path class="fil3" d="M1554 1543c6,-11 -6,-53 -10,-68 -2,-11 -5,-54 -17,-57 -9,9 4,50 7,64 8,34 5,58 20,61z"/>
   <path class="fil13" d="M1012 1307l21 -1 -1 70c-10,4 -25,3 -37,2l2 -73c-6,5 -2,-5 -5,9l0 67c13,5 30,5 43,0 6,-20 2,-69 0,-87l-7 4c0,1 -2,2 -3,3 -6,-2 -8,-3 -13,-5 2,11 2,3 0,11z"/>
   <path class="fil14" d="M1170 1378l-71 -1 -2 -93c30,-2 57,-5 84,6 -2,-4 2,-9 -18,-11 -8,-1 -16,-1 -25,-1 -14,1 -31,0 -46,3l3 101 75 -4z"/>
   <path class="fil4" d="M1355 1518c-11,7 -18,14 -14,34 13,9 21,10 31,-5 -3,-12 -10,-21 -17,-29z"/>
   <path class="fil12" d="M511 1515c-13,-1 -13,-7 -9,-21 4,-12 8,-15 19,-18 -2,13 -4,30 -10,39zm1 6c13,-9 16,-35 15,-51 -17,-3 -25,5 -30,19 -6,17 -8,31 15,32z"/>
   <path class="fil15" d="M838 1564c-15,2 -16,-3 -13,-20 2,-13 6,-15 17,-18l-4 38zm8 -43c-29,-3 -34,38 -22,47 0,1 20,11 22,-12 1,-10 2,-26 0,-35z"/>
   <path class="fil6" d="M970 1572c-21,6 -16,-32 2,-39l1 32c-1,11 0,2 -3,7zm9 -43c-29,-3 -36,34 -18,50 9,0 12,-2 18,-5l0 -45z"/>
   <path class="fil11" d="M620 1584c-5,-10 5,-33 18,-32 5,11 1,10 -5,21 -6,9 -2,10 -13,11zm11 -39c-18,13 -30,54 -4,45 3,-1 41,-43 4,-45z"/>
   <path class="fil16" d="M1314 1216c-8,-7 -7,-5 -17,-4 -7,11 -4,14 -5,29l-28 0 1 -74c-4,3 -4,-2 -5,16 0,6 0,14 0,21 0,13 0,26 2,39 11,2 23,3 34,-1l1 -27 17 1z"/>
   <path class="fil16" d="M943 1218c-4,-4 6,-5 -9,-3l-1 26 -29 -1 2 -72c-8,4 -5,1 -6,15l2 60 34 1 7 -26z"/>
   <path class="fil14" d="M1551 1337l-46 3c-1,-4 -1,-1 -1,-7 0,-1 0,-6 0,-7 7,-2 8,1 14,1 6,0 11,-2 15,-3 -1,-14 -1,-14 -15,-14 0,0 1,1 2,1 0,0 1,1 2,2l6 7c-15,7 -11,1 -27,0l-2 22c11,3 16,3 28,2 28,-1 22,-4 24,-7z"/>
   <path class="fil17" d="M511 1515c6,-9 8,-26 10,-39 -11,3 -15,6 -19,18 -4,14 -4,20 9,21z"/>
   <path class="fil17" d="M838 1564l4 -38c-11,3 -15,5 -17,18 -3,17 -2,22 13,20z"/>
   <path class="fil17" d="M970 1572c3,-5 2,4 3,-7l-1 -32c-18,7 -23,45 -2,39z"/>
   <path class="fil1" d="M620 1584c11,-1 7,-2 13,-11 6,-11 10,-10 5,-21 -13,-1 -23,22 -18,32z"/>
   <path class="fil7" d="M1012 1296c5,2 7,3 13,5 1,-1 3,-2 3,-3l7 -4c-1,-9 -1,-8 -5,-15l-14 1 -4 16z"/>
   <path class="fil14" d="M882 1346c-2,2 -2,0 -4,8l-2 17 -30 -4 0 -22c-7,7 -5,17 -3,27 37,5 38,10 39,-26z"/>
   <path class="fil18" d="M509 1260c16,-4 17,-19 0,-21 -2,3 -3,3 -4,8 -1,17 2,10 4,13z"/>
   <path class="fil6" d="M1152 1545c11,-4 18,-8 24,-17 -16,-8 -21,2 -24,17z"/>
   <path class="fil14" d="M829 1337c8,-12 0,-13 10,-21 9,7 5,9 5,23 0,0 7,-7 4,-18 -2,-11 -5,-8 -12,-9 -10,9 -7,11 -7,25z"/>
   <path class="fil14" d="M1151 1342c-2,14 3,11 -9,14 -5,-7 -4,-6 -3,-16l12 2zm0 0c-5,-8 -1,-7 -14,-5 -4,11 -4,11 0,24l16 -5c1,-11 3,-6 -2,-14z"/>
   <path class="fil19" d="M737 1343l-12 -4c3,-10 -2,-7 10,-8l2 12zm0 0c5,-6 4,14 4,-10 -10,-9 -5,-7 -20,-5l2 15c8,4 2,2 9,3l5 -3z"/>
   <path class="fil18" d="M1136 1319c19,2 23,-18 0,-16l0 16z"/>
   <path class="fil18" d="M598 1290l17 2c-2,-9 -1,-13 -8,-14 -8,-1 -9,5 -9,12z"/>
   <path class="fil17" d="M937 1339c3,-4 3,5 4,-7 0,-17 -1,-4 -4,-10 -14,5 -15,14 0,17z"/>
   <path class="fil17" d="M1030 1197c0,2 -6,-1 0,14 7,-1 13,2 11,-10 -1,-9 -7,-5 -11,-4z"/>
   <path class="fil18" d="M1232 1348c0,1 -6,6 1,12 5,5 4,2 10,1l2 -12 -13 -1z"/>
   <path class="fil17" d="M1441 1318c3,-4 3,0 3,-7 1,-13 -1,-7 -3,-9 -13,3 -16,12 0,16z"/>
   <path class="fil17" d="M1151 1342l-12 -2c-1,10 -2,9 3,16 12,-3 7,0 9,-14z"/>
   <path class="fil20" d="M1606 1303c5,6 -7,5 9,6 1,-1 13,0 0,-16 -16,0 -4,-1 -9,6 13,-3 5,-5 11,3 -7,4 -6,3 -11,1z"/>
   <path class="fil21" d="M1362 1482c3,-8 4,-9 0,-16 -4,1 -7,-3 -7,7 1,13 6,9 7,9z"/>
   <path class="fil22" d="M1208 1212c0,-5 2,-3 -1,-9 -2,-6 -2,-3 -6,-6l-3 15 10 0z"/>
   <path class="fil17" d="M737 1343l-2 -12c-12,1 -7,-2 -10,8l12 4z"/>
   <path class="fil17" d="M1606 1303c5,2 4,3 11,-1 -6,-8 2,-6 -11,-3l0 4z"/>
  </g>
 </g>
</svg>
